<svg width="100" height="100" viewBox="0 0 100 100" fill="none" xmlns="http://www.w3.org/2000/svg">
<path d="M50.0002 72.9167C55.2085 72.9167 59.6363 71.0944 63.2835 67.45C66.9279 63.8028 68.7502 59.375 68.7502 54.1667C68.7502 48.9583 66.9279 44.5306 63.2835 40.8833C59.6363 37.2389 55.2085 35.4167 50.0002 35.4167C44.7918 35.4167 40.3641 37.2389 36.7168 40.8833C33.0724 44.5306 31.2502 48.9583 31.2502 54.1667C31.2502 59.375 33.0724 63.8028 36.7168 67.45C40.3641 71.0944 44.7918 72.9167 50.0002 72.9167ZM45.4168 49.5833L48.1252 43.75C48.4724 42.9167 49.0974 42.5 50.0002 42.5C50.9029 42.5 51.5279 42.9167 51.8752 43.75L54.5835 49.5833L60.4168 52.2917C61.2502 52.6389 61.6668 53.2639 61.6668 54.1667C61.6668 55.0694 61.2502 55.6944 60.4168 56.0417L54.5835 58.75L51.8752 64.5833C51.5279 65.4167 50.9029 65.8333 50.0002 65.8333C49.0974 65.8333 48.4724 65.4167 48.1252 64.5833L45.4168 58.75L39.5835 56.0417C38.7502 55.6944 38.3335 55.0694 38.3335 54.1667C38.3335 53.2639 38.7502 52.6389 39.5835 52.2917L45.4168 49.5833ZM16.6668 87.5C14.3752 87.5 12.4141 86.6847 10.7835 85.0542C9.15016 83.4208 8.3335 81.4583 8.3335 79.1667V29.1667C8.3335 26.875 9.15016 24.9139 10.7835 23.2833C12.4141 21.65 14.3752 20.8333 16.6668 20.8333H29.7918L35.0002 15.2083C35.764 14.3056 36.6835 13.6278 37.7585 13.175C38.8363 12.725 39.9654 12.5 41.146 12.5H58.8543C60.0349 12.5 61.164 12.725 62.2418 13.175C63.3168 13.6278 64.2363 14.3056 65.0002 15.2083L70.2085 20.8333H83.3335C85.6252 20.8333 87.5877 21.65 89.221 23.2833C90.8515 24.9139 91.6668 26.875 91.6668 29.1667V79.1667C91.6668 81.4583 90.8515 83.4208 89.221 85.0542C87.5877 86.6847 85.6252 87.5 83.3335 87.5H16.6668Z" fill="white"/>
</svg>
