<svg width="100" height="100" viewBox="0 0 100 100" fill="none" xmlns="http://www.w3.org/2000/svg">
<path d="M16.6667 91.6667C14.375 91.6667 12.4139 90.8514 10.7833 89.2209C9.15 87.5875 8.33333 85.625 8.33333 83.3334V16.6667C8.33333 14.375 9.15 12.4125 10.7833 10.7792C12.4139 9.14865 14.375 8.33337 16.6667 8.33337H83.3333C85.625 8.33337 87.5875 9.14865 89.2208 10.7792C90.8514 12.4125 91.6667 14.375 91.6667 16.6667V83.3334C91.6667 85.625 90.8514 87.5875 89.2208 89.2209C87.5875 90.8514 85.625 91.6667 83.3333 91.6667H16.6667ZM16.6667 66.6667V83.3334H33.3333V66.6667H16.6667ZM41.6667 66.6667V83.3334H58.3333V66.6667H41.6667ZM66.6667 83.3334H83.3333V66.6667H66.6667V83.3334ZM16.6667 58.3334H33.3333V41.6667H16.6667V58.3334ZM41.6667 58.3334H58.3333V41.6667H41.6667V58.3334ZM66.6667 58.3334H83.3333V41.6667H66.6667V58.3334ZM33.3333 16.6667H16.6667V33.3334H33.3333V16.6667ZM41.6667 33.3334H58.3333V16.6667H41.6667V33.3334ZM66.6667 33.3334H83.3333V16.6667H66.6667V33.3334Z" fill="black"/>
</svg>
