<svg width="100" height="100" viewBox="0 0 100 100" fill="none" xmlns="http://www.w3.org/2000/svg">
<path d="M49.9998 49.9999C52.2915 49.9999 54.254 49.1832 55.8873 47.5499C57.5179 45.9194 58.3332 43.9583 58.3332 41.6666C58.3332 39.3749 57.5179 37.4124 55.8873 35.7791C54.254 34.1485 52.2915 33.3333 49.9998 33.3333C47.7082 33.3333 45.7471 34.1485 44.1165 35.7791C42.4832 37.4124 41.6665 39.3749 41.6665 41.6666C41.6665 43.9583 42.4832 45.9194 44.1165 47.5499C45.7471 49.1832 47.7082 49.9999 49.9998 49.9999ZM49.9998 91.6666C38.8193 82.1527 30.4693 73.3152 24.9498 65.1541C19.4276 56.9958 16.6665 49.4444 16.6665 42.4999C16.6665 32.0833 20.0179 23.7846 26.7207 17.6041C33.4207 11.4235 41.1804 8.33325 49.9998 8.33325C58.8193 8.33325 66.579 11.4235 73.279 17.6041C79.9818 23.7846 83.3332 32.0833 83.3332 42.4999C83.3332 49.4444 80.5734 56.9958 75.054 65.1541C69.5318 73.3152 61.1804 82.1527 49.9998 91.6666Z" fill="black"/>
</svg>
