<svg width="100" height="100" viewBox="0 0 100 100" fill="none" xmlns="http://www.w3.org/2000/svg">
<path d="M82.9167 52.75C82.2487 51.9896 81.8803 51.0121 81.8803 50C81.8803 48.9879 82.2487 48.0103 82.9167 47.25L88.25 41.25C88.8377 40.5944 89.2026 39.7696 89.2925 38.8937C89.3823 38.0179 89.1924 37.1362 88.75 36.375L80.4167 21.9583C79.9788 21.198 79.312 20.5953 78.5115 20.2362C77.7109 19.877 76.8174 19.7798 75.9583 19.9583L68.125 21.5416C67.1283 21.7476 66.0906 21.5816 65.2079 21.075C64.3251 20.5683 63.6583 19.7561 63.3333 18.7916L60.7917 11.1666C60.5121 10.339 59.9796 9.62024 59.2693 9.11181C58.559 8.60338 57.7068 8.33105 56.8333 8.3333H40.1667C39.2581 8.28588 38.3589 8.53716 37.6065 9.04878C36.8541 9.56039 36.2899 10.3042 36 11.1666L33.6667 18.7916C33.3417 19.7561 32.6749 20.5683 31.7921 21.075C30.9094 21.5816 29.8717 21.7476 28.875 21.5416L20.8333 19.9583C20.019 19.8432 19.1888 19.9717 18.4473 20.3276C17.7058 20.6835 17.0863 21.2509 16.6667 21.9583L8.33333 36.375C7.87984 37.1277 7.67593 38.0045 7.75076 38.8801C7.8256 39.7556 8.17534 40.5851 8.75 41.25L14.0417 47.25C14.7097 48.0103 15.0781 48.9879 15.0781 50C15.0781 51.0121 14.7097 51.9896 14.0417 52.75L8.75 58.75C8.17534 59.4148 7.8256 60.2443 7.75076 61.1199C7.67593 61.9954 7.87984 62.8723 8.33333 63.625L16.6667 78.0416C17.1046 78.802 17.7713 79.4046 18.5719 79.7638C19.3724 80.1229 20.2659 80.2201 21.125 80.0416L28.9583 78.4583C29.9551 78.2523 30.9927 78.4183 31.8755 78.925C32.7582 79.4316 33.425 80.2438 33.75 81.2083L36.2917 88.8333C36.5816 89.6957 37.1458 90.4395 37.8982 90.9512C38.6506 91.4628 39.5497 91.7141 40.4583 91.6666H57.125C57.9985 91.6689 58.8506 91.3966 59.561 90.8881C60.2713 90.3797 60.8038 89.6609 61.0833 88.8333L63.625 81.2083C63.95 80.2438 64.6168 79.4316 65.4995 78.925C66.3823 78.4183 67.4199 78.2523 68.4167 78.4583L76.25 80.0416C77.1091 80.2201 78.0026 80.1229 78.8031 79.7638C79.6037 79.4046 80.2704 78.802 80.7083 78.0416L89.0417 63.625C89.4841 62.8638 89.674 61.982 89.5841 61.1062C89.4943 60.2304 89.1294 59.4055 88.5417 58.75L82.9167 52.75ZM76.7083 58.3333L80.0417 62.0833L74.7083 71.3333L69.7917 70.3333C66.7907 69.7199 63.669 70.2296 61.0191 71.7658C58.3692 73.302 56.3756 75.7576 55.4167 78.6666L53.8333 83.3333H43.1667L41.6667 78.5833C40.7077 75.6743 38.7141 73.2187 36.0642 71.6825C33.4143 70.1463 30.2926 69.6365 27.2917 70.25L22.375 71.25L16.9583 62.0416L20.2917 58.2916C22.3415 55.9999 23.4747 53.033 23.4747 49.9583C23.4747 46.8836 22.3415 43.9167 20.2917 41.625L16.9583 37.875L22.2917 28.7083L27.2083 29.7083C30.2093 30.3217 33.331 29.812 35.9809 28.2758C38.6308 26.7396 40.6244 24.284 41.5833 21.375L43.1667 16.6666H53.8333L55.4167 21.4166C56.3756 24.3256 58.3692 26.7813 61.0191 28.3175C63.669 29.8536 66.7907 30.3634 69.7917 29.75L74.7083 28.75L80.0417 38L76.7083 41.75C74.6815 44.0365 73.5624 46.9861 73.5624 50.0416C73.5624 53.0971 74.6815 56.0468 76.7083 58.3333ZM48.5 33.3333C45.2036 33.3333 41.9813 34.3108 39.2405 36.1421C36.4997 37.9735 34.3635 40.5765 33.102 43.6219C31.8405 46.6673 31.5105 50.0185 32.1536 53.2515C32.7967 56.4845 34.384 59.4542 36.7149 61.7851C39.0458 64.116 42.0155 65.7033 45.2485 66.3464C48.4815 66.9895 51.8326 66.6594 54.8781 65.398C57.9235 64.1365 60.5265 62.0003 62.3578 59.2595C64.1892 56.5187 65.1667 53.2963 65.1667 50C65.1667 45.5797 63.4107 41.3405 60.2851 38.2149C57.1595 35.0892 52.9203 33.3333 48.5 33.3333ZM48.5 58.3333C46.8518 58.3333 45.2407 57.8446 43.8702 56.9289C42.4998 56.0132 41.4317 54.7117 40.801 53.189C40.1703 51.6663 40.0052 49.9907 40.3268 48.3742C40.6483 46.7577 41.442 45.2729 42.6074 44.1074C43.7729 42.942 45.2577 42.1483 46.8742 41.8268C48.4908 41.5052 50.1663 41.6702 51.689 42.301C53.2117 42.9317 54.5132 43.9998 55.4289 45.3702C56.3446 46.7406 56.8333 48.3518 56.8333 50C56.8333 52.2101 55.9554 54.3297 54.3926 55.8925C52.8298 57.4553 50.7101 58.3333 48.5 58.3333Z" fill="black"/>
</svg>
